<svg width="33" height="33" viewBox="0 0 33 33" fill="none" xmlns="http://www.w3.org/2000/svg">
<path d="M21.6631 19.6006H20.5769L20.1919 19.2293C21.5394 17.6618 22.3506 15.6268 22.3506 13.4131C22.3506 8.47684 18.3494 4.47559 13.4131 4.47559C8.4769 4.47559 4.47565 8.47684 4.47565 13.4131C4.47565 18.3493 8.4769 22.3506 13.4131 22.3506C15.6269 22.3506 17.6619 21.5393 19.2294 20.1918L19.6006 20.5768V21.6631L26.4756 28.5243L28.5244 26.4756L21.6631 19.6006ZM13.4131 19.6006C9.9894 19.6006 7.22565 16.8368 7.22565 13.4131C7.22565 9.98934 9.9894 7.22559 13.4131 7.22559C16.8369 7.22559 19.6006 9.98934 19.6006 13.4131C19.6006 16.8368 16.8369 19.6006 13.4131 19.6006Z" fill="#7E22CE"/>
</svg>
